<svg width="75" height="68" viewBox="0 0 75 68" fill="none" xmlns="http://www.w3.org/2000/svg">
<path id="arrow-hero-left" d="M0.67993 62.7314C0.465503 62.9054 0.43273 63.2203 0.606729 63.4347L3.44221 66.929C3.61621 67.1434 3.93109 67.1762 4.14551 67.0022C4.35994 66.8282 4.39271 66.5133 4.21872 66.2989L1.69829 63.1929L4.80433 60.6724C5.01875 60.4984 5.05153 60.1836 4.87753 59.9691C4.70353 59.7547 4.38865 59.7219 4.17422 59.8959L0.67993 62.7314ZM0.943222 63.617C1.28909 63.653 1.63335 63.6875 1.97601 63.7205L2.07191 62.7251C1.7318 62.6923 1.39008 62.6581 1.04674 62.6224L0.943222 63.617ZM7.97326 64.157C8.66509 64.1904 9.34985 64.2173 10.0276 64.2379L10.058 63.2384C9.38626 63.2179 8.70744 63.1912 8.02146 63.1581L7.97326 64.157ZM16.0562 64.2527C16.7426 64.2343 17.4211 64.2089 18.0917 64.1767L18.0438 63.1779C17.3803 63.2097 16.7088 63.2348 16.0294 63.253L16.0562 64.2527ZM24.1152 63.6845C24.7826 63.6063 25.4414 63.5207 26.0917 63.4281L25.9506 62.4381C25.3087 62.5296 24.6581 62.614 23.9987 62.6913L24.1152 63.6845ZM32.0317 62.3363C32.7048 62.1831 33.3675 62.0215 34.0199 61.852L33.7684 60.8842C33.1259 61.0511 32.4731 61.2102 31.8098 61.3612L32.0317 62.3363ZM39.8065 60.0479C40.4377 59.816 41.0577 59.5759 41.6667 59.3278L41.2895 58.4017C40.6913 58.6454 40.082 58.8813 39.4616 59.1093L39.8065 60.0479ZM47.1652 56.7231C47.7633 56.3966 48.3488 56.0617 48.9218 55.7188L48.4083 54.8607C47.8467 55.1968 47.2726 55.5252 46.686 55.8454L47.1652 56.7231ZM53.927 52.2923C54.4656 51.8723 54.9906 51.4447 55.5022 51.01L54.8547 50.2479C54.3537 50.6736 53.8396 51.0924 53.3121 51.5037L53.927 52.2923ZM59.8702 46.7973C60.3294 46.295 60.7748 45.7867 61.2067 45.2732L60.4414 44.6296C60.0182 45.1327 59.582 45.6305 59.1322 46.1225L59.8702 46.7973ZM64.8262 40.3975C65.1967 39.8309 65.5537 39.2608 65.8977 38.688L65.0405 38.1731C64.7029 38.7352 64.3526 39.2945 63.9893 39.8502L64.8262 40.3975ZM68.733 33.3166C69.0171 32.7003 69.2884 32.0838 69.5474 31.4678L68.6256 31.0802C68.3709 31.686 68.1042 32.2921 67.8249 32.8978L68.733 33.3166ZM71.6206 25.7785C71.8244 25.1251 72.0159 24.4758 72.1958 23.8317L71.2327 23.5627C71.0554 24.1974 70.8667 24.8371 70.666 25.4807L71.6206 25.7785ZM73.5738 17.9316C73.7022 17.2555 73.8187 16.5909 73.9243 15.9393L72.9372 15.7793C72.8329 16.4222 72.718 17.078 72.5913 17.745L73.5738 17.9316ZM74.6564 9.93464C74.7144 9.22888 74.7601 8.55439 74.7956 7.91484L73.7971 7.85942C73.7621 8.49044 73.717 9.15607 73.6597 9.85265L74.6564 9.93464ZM74.8654 1.84853C74.8525 1.52953 74.839 1.28322 74.8287 1.11588C74.8235 1.03221 74.8191 0.968277 74.816 0.924864C74.8144 0.903157 74.8131 0.886579 74.8123 0.875229C74.8118 0.869554 74.8115 0.865186 74.8112 0.862137C74.8111 0.860612 74.811 0.859417 74.8109 0.858554C74.8109 0.858122 74.8109 0.857773 74.8109 0.857507C74.8109 0.857374 74.8108 0.857262 74.8108 0.857171C74.8108 0.857125 74.8108 0.857084 74.8108 0.857049C74.8108 0.857031 74.8108 0.857009 74.8108 0.857C74.8108 0.856979 74.8108 0.856959 74.3125 0.897834C73.8142 0.93871 73.8142 0.938693 73.8142 0.938676C73.8142 0.938673 73.8142 0.938658 73.8142 0.938651C73.8142 0.938636 73.8142 0.938627 73.8142 0.938623C73.8142 0.938614 73.8142 0.938627 73.8142 0.93866C73.8142 0.938726 73.8142 0.938874 73.8142 0.939106C73.8142 0.939568 73.8143 0.940361 73.8144 0.941483C73.8146 0.943727 73.8148 0.947285 73.8152 0.952147C73.816 0.96187 73.8171 0.976804 73.8185 0.996851C73.8214 1.03695 73.8256 1.09749 73.8306 1.17771C73.8405 1.33815 73.8537 1.57726 73.8662 1.88878L74.8654 1.84853Z" fill="#F5712C"/>
</svg>
