<svg width="91" height="45" viewBox="0 0 91 45" fill="none" xmlns="http://www.w3.org/2000/svg">
<path id="arrow-hero-right" d="M90.24 10.2828C90.4994 10.1881 90.6329 9.90107 90.5382 9.64168L88.9949 5.41462C88.9002 5.15523 88.6131 5.02172 88.3537 5.11643C88.0943 5.21114 87.9608 5.4982 88.0555 5.75759L89.4274 9.51498L85.67 10.8869C85.4106 10.9816 85.2771 11.2686 85.3718 11.528C85.4665 11.7874 85.7536 11.9209 86.013 11.8262L90.24 10.2828ZM90.2794 9.3598C89.9641 9.21316 89.6498 9.06846 89.3366 8.92568L88.9218 9.83562C89.2328 9.97733 89.5447 10.121 89.8577 10.2665L90.2794 9.3598ZM83.8082 6.56048C83.1649 6.30366 82.5262 6.05525 81.8921 5.81511L81.538 6.75029C82.1664 6.98831 82.7996 7.23456 83.4374 7.4892L83.8082 6.56048ZM76.1968 3.83845C75.5418 3.63237 74.892 3.43545 74.2474 3.24752L73.9675 4.20755C74.6053 4.39349 75.2483 4.58836 75.8966 4.79235L76.1968 3.83845ZM68.3919 1.75186C67.7353 1.60855 67.0846 1.47495 66.4396 1.35085L66.2506 2.33284C66.8874 2.45536 67.53 2.58729 68.1786 2.72886L68.3919 1.75186ZM60.4677 0.449267C59.7814 0.375016 59.1022 0.311993 58.4302 0.259899L58.3529 1.25691C59.0147 1.30821 59.6838 1.37029 60.3601 1.44347L60.4677 0.449267ZM52.3715 0.0817355C51.6992 0.0955157 51.0347 0.120726 50.3782 0.156997L50.4333 1.15548C51.0783 1.11985 51.7311 1.09507 52.392 1.08153L52.3715 0.0817355ZM44.3313 0.82967C43.6594 0.943667 42.9968 1.06974 42.3434 1.20739L42.5495 2.18592C43.19 2.05099 43.8396 1.92737 44.4986 1.81558L44.3313 0.82967ZM36.4953 2.81765C35.8493 3.03938 35.2137 3.2728 34.5884 3.51725L34.9526 4.44861C35.5648 4.20923 36.1873 3.98064 36.8199 3.76349L36.4953 2.81765ZM29.0869 6.07842C28.4892 6.4038 27.9026 6.73936 27.327 7.0843L27.8411 7.94205C28.405 7.60411 28.9796 7.27542 29.565 6.95672L29.0869 6.07842ZM22.3173 10.516C21.7826 10.9311 21.2594 11.3539 20.7476 11.7834L21.3905 12.5494C21.8927 12.1278 22.406 11.7131 22.9305 11.3059L22.3173 10.516ZM16.3181 15.9392C15.8488 16.4294 15.3915 16.924 14.9461 17.4221L15.6916 18.0887C16.1296 17.5989 16.5791 17.1126 17.0404 16.6308L16.3181 15.9392ZM11.1336 22.1265C10.7282 22.678 10.3357 23.2295 9.95597 23.7799L10.7791 24.3478C11.1533 23.8055 11.5399 23.262 11.9393 22.7189L11.1336 22.1265ZM6.73215 28.91C6.39065 29.5074 6.06412 30.0979 5.75212 30.6796L6.63334 31.1523C6.94123 30.5783 7.26342 29.9957 7.60032 29.4063L6.73215 28.91ZM3.10501 36.1188C2.82034 36.7672 2.55757 37.3901 2.31579 37.9832L3.24181 38.3607C3.48037 37.7755 3.73968 37.1608 4.02065 36.5208L3.10501 36.1188ZM0.274777 43.6963C0.183068 44.0021 0.115656 44.2394 0.0709773 44.401C0.0486374 44.4818 0.0319795 44.5437 0.0208081 44.5857C0.0152223 44.6068 0.011008 44.6229 0.00814073 44.6339C0.00670709 44.6394 0.00561018 44.6436 0.00484697 44.6466C0.00446536 44.6481 0.00416717 44.6492 0.00395201 44.6501C0.00384444 44.6505 0.00375762 44.6508 0.00369151 44.6511C0.00365846 44.6512 0.00363059 44.6513 0.00360788 44.6514C0.00359653 44.6515 0.00358647 44.6515 0.00357771 44.6515C0.00357332 44.6516 0.00356772 44.6516 0.00356552 44.6516C0.00356024 44.6516 0.00355528 44.6516 0.48804 44.7752C0.972525 44.8988 0.97252 44.8988 0.972516 44.8988C0.972515 44.8988 0.972512 44.8989 0.97251 44.8989C0.972506 44.8989 0.972504 44.8989 0.972503 44.8989C0.972501 44.8989 0.972504 44.8989 0.972512 44.8989C0.972528 44.8988 0.972565 44.8986 0.972623 44.8984C0.972738 44.898 0.972936 44.8972 0.973217 44.8961C0.973779 44.8939 0.974672 44.8905 0.9759 44.8858C0.978356 44.8763 0.982152 44.8618 0.98731 44.8424C0.997628 44.8036 1.0134 44.7449 1.03482 44.6675C1.07765 44.5125 1.14307 44.2822 1.23263 43.9836L0.274777 43.6963Z" fill="#F5712C"/>
</svg>
