<?xml version="1.0" encoding="UTF-8"?>
<svg width="44px" height="44px" viewBox="0 0 44 44" version="1.1" xmlns="http://www.w3.org/2000/svg" xmlns:xlink="http://www.w3.org/1999/xlink">
    <title>mobile-menu-close</title>
    <g id="Page-1" stroke="none" stroke-width="1" fill="none" fill-rule="evenodd">
        <g id="Mobile" transform="translate(-302.000000, -20.000000)">
            <g id="mobile-menu-close" transform="translate(302.000000, 20.000000)">
                <path d="M10.2555408,0.5 L33.7444592,0.5 C37.1689355,0.5 38.4177606,0.838885677 39.6715834,1.50943741 C40.886864,2.15937661 41.8406234,3.11313597 42.4905626,4.32841662 C43.1611143,5.58223935 43.5,6.83106445 43.5,10.2555408 L43.5,33.7444592 C43.5,37.1689355 43.1611143,38.4177606 42.4905626,39.6715834 C41.8406234,40.886864 40.886864,41.8406234 39.6715834,42.4905626 C38.4177606,43.1611143 37.1689355,43.5 33.7444592,43.5 L10.2555408,43.5 C6.83106445,43.5 5.58223935,43.1611143 4.32841662,42.4905626 C3.11313597,41.8406234 2.15937661,40.886864 1.50943741,39.6715834 C0.838885677,38.4177606 0.5,37.1689355 0.5,33.7444592 L0.5,10.2555408 C0.5,6.83106445 0.838885677,5.58223935 1.50943741,4.32841662 C2.15937661,3.11313597 3.11313597,2.15937661 4.32841662,1.50943741 C5.58223935,0.838885677 6.83106445,0.5 10.2555408,0.5 Z" id="Rectangle" stroke="#26A6A7" fill="#26A6A7"></path>
                <g id="Group" transform="translate(13.514719, 13.382991)" stroke="#170B27" stroke-width="2">
                    <line x1="-3.01471863" y1="8.48528137" x2="19.9852814" y2="8.48528137" id="Path-4" transform="translate(8.485281, 8.485281) rotate(45.000000) translate(-8.485281, -8.485281) "></line>
                    <line x1="-3.01471863" y1="8.48528137" x2="19.9852814" y2="8.48528137" id="Path-4-Copy-2" transform="translate(8.485281, 8.485281) rotate(-45.000000) translate(-8.485281, -8.485281) "></line>
                </g>
            </g>
        </g>
    </g>
</svg>