<?xml version="1.0" encoding="UTF-8"?>
<svg width="131px" height="530px" viewBox="0 0 131 530" version="1.1" xmlns="http://www.w3.org/2000/svg" xmlns:xlink="http://www.w3.org/1999/xlink">
    <title>pattern-footer</title>
    <g id="Page-1" stroke="none" stroke-width="1" fill="none" fill-rule="evenodd">
        <g id="Home" transform="translate(-19.000000, -2988.000000)">
            <g id="pattern-footer" transform="translate(84.240284, 3252.878095) rotate(-90.000000) translate(-84.240284, -3252.878095) translate(-180.461431, 3187.910524)">
                <g id="Group-3-Copy-43" transform="translate(479.985798, 80.257571)" fill="#31263E">
                    <polygon id="Path-2" points="4.13123169 0 4.13123169 3.99010773 0 3.99010773 0 5.60196381 4.13123169 5.60196381 4.13123169 9.47757111 5.48377075 9.47757111 5.48377075 5.60196381 9.41763306 5.60196381 9.41763306 3.99010773 5.48377075 3.99010773 5.48377075 0"></polygon>
                    <polygon id="Path-2-Copy" points="44.1312317 0 44.1312317 3.99010773 40 3.99010773 40 5.60196381 44.1312317 5.60196381 44.1312317 9.47757111 45.4837708 9.47757111 45.4837708 5.60196381 49.4176331 5.60196381 49.4176331 3.99010773 45.4837708 3.99010773 45.4837708 0"></polygon>
                    <polygon id="Path-2-Copy-2" points="44.1312317 40.2 44.1312317 44.1901077 40 44.1901077 40 45.8019638 44.1312317 45.8019638 44.1312317 49.6775711 45.4837708 49.6775711 45.4837708 45.8019638 49.4176331 45.8019638 49.4176331 44.1901077 45.4837708 44.1901077 45.4837708 40.2"></polygon>
                    <polygon id="Path-2-Copy-3" points="4.13123169 40.2 4.13123169 44.1901077 0 44.1901077 0 45.8019638 4.13123169 45.8019638 4.13123169 49.6775711 5.48377075 49.6775711 5.48377075 45.8019638 9.41763306 45.8019638 9.41763306 44.1901077 5.48377075 44.1901077 5.48377075 40.2"></polygon>
                </g>
                <g id="Group-3-Copy-42" transform="translate(399.988165, 80.257571)" fill="#31263E">
                    <polygon id="Path-2" points="4.13123169 0 4.13123169 3.99010773 0 3.99010773 0 5.60196381 4.13123169 5.60196381 4.13123169 9.47757111 5.48377075 9.47757111 5.48377075 5.60196381 9.41763306 5.60196381 9.41763306 3.99010773 5.48377075 3.99010773 5.48377075 0"></polygon>
                    <polygon id="Path-2-Copy" points="44.1312317 0 44.1312317 3.99010773 40 3.99010773 40 5.60196381 44.1312317 5.60196381 44.1312317 9.47757111 45.4837708 9.47757111 45.4837708 5.60196381 49.4176331 5.60196381 49.4176331 3.99010773 45.4837708 3.99010773 45.4837708 0"></polygon>
                    <polygon id="Path-2-Copy-2" points="44.1312317 40.2 44.1312317 44.1901077 40 44.1901077 40 45.8019638 44.1312317 45.8019638 44.1312317 49.6775711 45.4837708 49.6775711 45.4837708 45.8019638 49.4176331 45.8019638 49.4176331 44.1901077 45.4837708 44.1901077 45.4837708 40.2"></polygon>
                    <polygon id="Path-2-Copy-3" points="4.13123169 40.2 4.13123169 44.1901077 0 44.1901077 0 45.8019638 4.13123169 45.8019638 4.13123169 49.6775711 5.48377075 49.6775711 5.48377075 45.8019638 9.41763306 45.8019638 9.41763306 44.1901077 5.48377075 44.1901077 5.48377075 40.2"></polygon>
                </g>
                <g id="Group-3-Copy-41" transform="translate(319.990532, 80.257571)" fill="#31263E">
                    <polygon id="Path-2" points="4.13123169 0 4.13123169 3.99010773 0 3.99010773 0 5.60196381 4.13123169 5.60196381 4.13123169 9.47757111 5.48377075 9.47757111 5.48377075 5.60196381 9.41763306 5.60196381 9.41763306 3.99010773 5.48377075 3.99010773 5.48377075 0"></polygon>
                    <polygon id="Path-2-Copy" points="44.1312317 0 44.1312317 3.99010773 40 3.99010773 40 5.60196381 44.1312317 5.60196381 44.1312317 9.47757111 45.4837708 9.47757111 45.4837708 5.60196381 49.4176331 5.60196381 49.4176331 3.99010773 45.4837708 3.99010773 45.4837708 0"></polygon>
                    <polygon id="Path-2-Copy-2" points="44.1312317 40.2 44.1312317 44.1901077 40 44.1901077 40 45.8019638 44.1312317 45.8019638 44.1312317 49.6775711 45.4837708 49.6775711 45.4837708 45.8019638 49.4176331 45.8019638 49.4176331 44.1901077 45.4837708 44.1901077 45.4837708 40.2"></polygon>
                    <polygon id="Path-2-Copy-3" points="4.13123169 40.2 4.13123169 44.1901077 0 44.1901077 0 45.8019638 4.13123169 45.8019638 4.13123169 49.6775711 5.48377075 49.6775711 5.48377075 45.8019638 9.41763306 45.8019638 9.41763306 44.1901077 5.48377075 44.1901077 5.48377075 40.2"></polygon>
                </g>
                <g id="Group-3-Copy-40" transform="translate(239.992899, 80.257571)" fill="#31263E">
                    <polygon id="Path-2" points="4.13123169 0 4.13123169 3.99010773 0 3.99010773 0 5.60196381 4.13123169 5.60196381 4.13123169 9.47757111 5.48377075 9.47757111 5.48377075 5.60196381 9.41763306 5.60196381 9.41763306 3.99010773 5.48377075 3.99010773 5.48377075 0"></polygon>
                    <polygon id="Path-2-Copy" points="44.1312317 0 44.1312317 3.99010773 40 3.99010773 40 5.60196381 44.1312317 5.60196381 44.1312317 9.47757111 45.4837708 9.47757111 45.4837708 5.60196381 49.4176331 5.60196381 49.4176331 3.99010773 45.4837708 3.99010773 45.4837708 0"></polygon>
                    <polygon id="Path-2-Copy-2" points="44.1312317 40.2 44.1312317 44.1901077 40 44.1901077 40 45.8019638 44.1312317 45.8019638 44.1312317 49.6775711 45.4837708 49.6775711 45.4837708 45.8019638 49.4176331 45.8019638 49.4176331 44.1901077 45.4837708 44.1901077 45.4837708 40.2"></polygon>
                    <polygon id="Path-2-Copy-3" points="4.13123169 40.2 4.13123169 44.1901077 0 44.1901077 0 45.8019638 4.13123169 45.8019638 4.13123169 49.6775711 5.48377075 49.6775711 5.48377075 45.8019638 9.41763306 45.8019638 9.41763306 44.1901077 5.48377075 44.1901077 5.48377075 40.2"></polygon>
                </g>
                <g id="Group-3-Copy-39" transform="translate(159.995266, 80.257571)">
                    <polygon id="Path-2" fill="#31263E" points="4.13123169 0 4.13123169 3.99010773 0 3.99010773 0 5.60196381 4.13123169 5.60196381 4.13123169 9.47757111 5.48377075 9.47757111 5.48377075 5.60196381 9.41763306 5.60196381 9.41763306 3.99010773 5.48377075 3.99010773 5.48377075 0"></polygon>
                    <polygon id="Path-2-Copy" fill="#31263E" points="44.1312317 0 44.1312317 3.99010773 40 3.99010773 40 5.60196381 44.1312317 5.60196381 44.1312317 9.47757111 45.4837708 9.47757111 45.4837708 5.60196381 49.4176331 5.60196381 49.4176331 3.99010773 45.4837708 3.99010773 45.4837708 0"></polygon>
                    <polygon id="Path-2-Copy-2" fill="#26A6A7" points="44.1312317 40.2 44.1312317 44.1901077 40 44.1901077 40 45.8019638 44.1312317 45.8019638 44.1312317 49.6775711 45.4837708 49.6775711 45.4837708 45.8019638 49.4176331 45.8019638 49.4176331 44.1901077 45.4837708 44.1901077 45.4837708 40.2"></polygon>
                    <polygon id="Path-2-Copy-3" fill="#31263E" points="4.13123169 40.2 4.13123169 44.1901077 0 44.1901077 0 45.8019638 4.13123169 45.8019638 4.13123169 49.6775711 5.48377075 49.6775711 5.48377075 45.8019638 9.41763306 45.8019638 9.41763306 44.1901077 5.48377075 44.1901077 5.48377075 40.2"></polygon>
                </g>
                <g id="Group-3-Copy-38" transform="translate(79.997633, 80.257571)" fill="#31263E">
                    <polygon id="Path-2" points="4.13123169 0 4.13123169 3.99010773 0 3.99010773 0 5.60196381 4.13123169 5.60196381 4.13123169 9.47757111 5.48377075 9.47757111 5.48377075 5.60196381 9.41763306 5.60196381 9.41763306 3.99010773 5.48377075 3.99010773 5.48377075 0"></polygon>
                    <polygon id="Path-2-Copy" points="44.1312317 0 44.1312317 3.99010773 40 3.99010773 40 5.60196381 44.1312317 5.60196381 44.1312317 9.47757111 45.4837708 9.47757111 45.4837708 5.60196381 49.4176331 5.60196381 49.4176331 3.99010773 45.4837708 3.99010773 45.4837708 0"></polygon>
                    <polygon id="Path-2-Copy-2" points="44.1312317 40.2 44.1312317 44.1901077 40 44.1901077 40 45.8019638 44.1312317 45.8019638 44.1312317 49.6775711 45.4837708 49.6775711 45.4837708 45.8019638 49.4176331 45.8019638 49.4176331 44.1901077 45.4837708 44.1901077 45.4837708 40.2"></polygon>
                    <polygon id="Path-2-Copy-3" points="4.13123169 40.2 4.13123169 44.1901077 0 44.1901077 0 45.8019638 4.13123169 45.8019638 4.13123169 49.6775711 5.48377075 49.6775711 5.48377075 45.8019638 9.41763306 45.8019638 9.41763306 44.1901077 5.48377075 44.1901077 5.48377075 40.2"></polygon>
                </g>
                <g id="Group-3-Copy-37" transform="translate(0.000000, 80.257571)" fill="#31263E">
                    <polygon id="Path-2" points="4.13123169 0 4.13123169 3.99010773 0 3.99010773 0 5.60196381 4.13123169 5.60196381 4.13123169 9.47757111 5.48377075 9.47757111 5.48377075 5.60196381 9.41763306 5.60196381 9.41763306 3.99010773 5.48377075 3.99010773 5.48377075 0"></polygon>
                    <polygon id="Path-2-Copy" points="44.1312317 0 44.1312317 3.99010773 40 3.99010773 40 5.60196381 44.1312317 5.60196381 44.1312317 9.47757111 45.4837708 9.47757111 45.4837708 5.60196381 49.4176331 5.60196381 49.4176331 3.99010773 45.4837708 3.99010773 45.4837708 0"></polygon>
                    <polygon id="Path-2-Copy-2" points="44.1312317 40.2 44.1312317 44.1901077 40 44.1901077 40 45.8019638 44.1312317 45.8019638 44.1312317 49.6775711 45.4837708 49.6775711 45.4837708 45.8019638 49.4176331 45.8019638 49.4176331 44.1901077 45.4837708 44.1901077 45.4837708 40.2"></polygon>
                    <polygon id="Path-2-Copy-3" points="4.13123169 40.2 4.13123169 44.1901077 0 44.1901077 0 45.8019638 4.13123169 45.8019638 4.13123169 49.6775711 5.48377075 49.6775711 5.48377075 45.8019638 9.41763306 45.8019638 9.41763306 44.1901077 5.48377075 44.1901077 5.48377075 40.2"></polygon>
                </g>
                <g id="Group-3-Copy-34" transform="translate(479.985798, 0.000000)" fill="#31263E">
                    <polygon id="Path-2" points="4.13123169 0 4.13123169 3.99010773 0 3.99010773 0 5.60196381 4.13123169 5.60196381 4.13123169 9.47757111 5.48377075 9.47757111 5.48377075 5.60196381 9.41763306 5.60196381 9.41763306 3.99010773 5.48377075 3.99010773 5.48377075 0"></polygon>
                    <polygon id="Path-2-Copy" points="44.1312317 0 44.1312317 3.99010773 40 3.99010773 40 5.60196381 44.1312317 5.60196381 44.1312317 9.47757111 45.4837708 9.47757111 45.4837708 5.60196381 49.4176331 5.60196381 49.4176331 3.99010773 45.4837708 3.99010773 45.4837708 0"></polygon>
                    <polygon id="Path-2-Copy-2" points="44.1312317 40.2 44.1312317 44.1901077 40 44.1901077 40 45.8019638 44.1312317 45.8019638 44.1312317 49.6775711 45.4837708 49.6775711 45.4837708 45.8019638 49.4176331 45.8019638 49.4176331 44.1901077 45.4837708 44.1901077 45.4837708 40.2"></polygon>
                    <polygon id="Path-2-Copy-3" points="4.13123169 40.2 4.13123169 44.1901077 0 44.1901077 0 45.8019638 4.13123169 45.8019638 4.13123169 49.6775711 5.48377075 49.6775711 5.48377075 45.8019638 9.41763306 45.8019638 9.41763306 44.1901077 5.48377075 44.1901077 5.48377075 40.2"></polygon>
                </g>
                <g id="Group-3-Copy-33" transform="translate(399.988165, 0.000000)" fill="#31263E">
                    <polygon id="Path-2" points="4.13123169 0 4.13123169 3.99010773 0 3.99010773 0 5.60196381 4.13123169 5.60196381 4.13123169 9.47757111 5.48377075 9.47757111 5.48377075 5.60196381 9.41763306 5.60196381 9.41763306 3.99010773 5.48377075 3.99010773 5.48377075 0"></polygon>
                    <polygon id="Path-2-Copy" points="44.1312317 0 44.1312317 3.99010773 40 3.99010773 40 5.60196381 44.1312317 5.60196381 44.1312317 9.47757111 45.4837708 9.47757111 45.4837708 5.60196381 49.4176331 5.60196381 49.4176331 3.99010773 45.4837708 3.99010773 45.4837708 0"></polygon>
                    <polygon id="Path-2-Copy-2" points="44.1312317 40.2 44.1312317 44.1901077 40 44.1901077 40 45.8019638 44.1312317 45.8019638 44.1312317 49.6775711 45.4837708 49.6775711 45.4837708 45.8019638 49.4176331 45.8019638 49.4176331 44.1901077 45.4837708 44.1901077 45.4837708 40.2"></polygon>
                    <polygon id="Path-2-Copy-3" points="4.13123169 40.2 4.13123169 44.1901077 0 44.1901077 0 45.8019638 4.13123169 45.8019638 4.13123169 49.6775711 5.48377075 49.6775711 5.48377075 45.8019638 9.41763306 45.8019638 9.41763306 44.1901077 5.48377075 44.1901077 5.48377075 40.2"></polygon>
                </g>
                <g id="Group-3-Copy-32" transform="translate(319.990532, 0.000000)" fill="#31263E">
                    <polygon id="Path-2" points="4.13123169 0 4.13123169 3.99010773 0 3.99010773 0 5.60196381 4.13123169 5.60196381 4.13123169 9.47757111 5.48377075 9.47757111 5.48377075 5.60196381 9.41763306 5.60196381 9.41763306 3.99010773 5.48377075 3.99010773 5.48377075 0"></polygon>
                    <polygon id="Path-2-Copy" points="44.1312317 0 44.1312317 3.99010773 40 3.99010773 40 5.60196381 44.1312317 5.60196381 44.1312317 9.47757111 45.4837708 9.47757111 45.4837708 5.60196381 49.4176331 5.60196381 49.4176331 3.99010773 45.4837708 3.99010773 45.4837708 0"></polygon>
                    <polygon id="Path-2-Copy-2" points="44.1312317 40.2 44.1312317 44.1901077 40 44.1901077 40 45.8019638 44.1312317 45.8019638 44.1312317 49.6775711 45.4837708 49.6775711 45.4837708 45.8019638 49.4176331 45.8019638 49.4176331 44.1901077 45.4837708 44.1901077 45.4837708 40.2"></polygon>
                    <polygon id="Path-2-Copy-3" points="4.13123169 40.2 4.13123169 44.1901077 0 44.1901077 0 45.8019638 4.13123169 45.8019638 4.13123169 49.6775711 5.48377075 49.6775711 5.48377075 45.8019638 9.41763306 45.8019638 9.41763306 44.1901077 5.48377075 44.1901077 5.48377075 40.2"></polygon>
                </g>
                <g id="Group-3-Copy-31" transform="translate(239.992899, -0.000000)" fill="#31263E">
                    <polygon id="Path-2" points="4.13123169 0 4.13123169 3.99010773 0 3.99010773 0 5.60196381 4.13123169 5.60196381 4.13123169 9.47757111 5.48377075 9.47757111 5.48377075 5.60196381 9.41763306 5.60196381 9.41763306 3.99010773 5.48377075 3.99010773 5.48377075 0"></polygon>
                    <polygon id="Path-2-Copy" points="44.1312317 0 44.1312317 3.99010773 40 3.99010773 40 5.60196381 44.1312317 5.60196381 44.1312317 9.47757111 45.4837708 9.47757111 45.4837708 5.60196381 49.4176331 5.60196381 49.4176331 3.99010773 45.4837708 3.99010773 45.4837708 0"></polygon>
                    <polygon id="Path-2-Copy-2" points="44.1312317 40.2 44.1312317 44.1901077 40 44.1901077 40 45.8019638 44.1312317 45.8019638 44.1312317 49.6775711 45.4837708 49.6775711 45.4837708 45.8019638 49.4176331 45.8019638 49.4176331 44.1901077 45.4837708 44.1901077 45.4837708 40.2"></polygon>
                    <polygon id="Path-2-Copy-3" points="4.13123169 40.2 4.13123169 44.1901077 0 44.1901077 0 45.8019638 4.13123169 45.8019638 4.13123169 49.6775711 5.48377075 49.6775711 5.48377075 45.8019638 9.41763306 45.8019638 9.41763306 44.1901077 5.48377075 44.1901077 5.48377075 40.2"></polygon>
                </g>
                <g id="Group-3-Copy-30" transform="translate(159.995266, 0.000000)" fill="#31263E">
                    <polygon id="Path-2" points="4.13123169 0 4.13123169 3.99010773 0 3.99010773 0 5.60196381 4.13123169 5.60196381 4.13123169 9.47757111 5.48377075 9.47757111 5.48377075 5.60196381 9.41763306 5.60196381 9.41763306 3.99010773 5.48377075 3.99010773 5.48377075 0"></polygon>
                    <polygon id="Path-2-Copy" points="44.1312317 0 44.1312317 3.99010773 40 3.99010773 40 5.60196381 44.1312317 5.60196381 44.1312317 9.47757111 45.4837708 9.47757111 45.4837708 5.60196381 49.4176331 5.60196381 49.4176331 3.99010773 45.4837708 3.99010773 45.4837708 0"></polygon>
                    <polygon id="Path-2-Copy-2" points="44.1312317 40.2 44.1312317 44.1901077 40 44.1901077 40 45.8019638 44.1312317 45.8019638 44.1312317 49.6775711 45.4837708 49.6775711 45.4837708 45.8019638 49.4176331 45.8019638 49.4176331 44.1901077 45.4837708 44.1901077 45.4837708 40.2"></polygon>
                    <polygon id="Path-2-Copy-3" points="4.13123169 40.2 4.13123169 44.1901077 0 44.1901077 0 45.8019638 4.13123169 45.8019638 4.13123169 49.6775711 5.48377075 49.6775711 5.48377075 45.8019638 9.41763306 45.8019638 9.41763306 44.1901077 5.48377075 44.1901077 5.48377075 40.2"></polygon>
                </g>
                <g id="Group-3-Copy-29" transform="translate(79.997633, 0.000000)" fill="#31263E">
                    <polygon id="Path-2" points="4.13123169 0 4.13123169 3.99010773 0 3.99010773 0 5.60196381 4.13123169 5.60196381 4.13123169 9.47757111 5.48377075 9.47757111 5.48377075 5.60196381 9.41763306 5.60196381 9.41763306 3.99010773 5.48377075 3.99010773 5.48377075 0"></polygon>
                    <polygon id="Path-2-Copy" points="44.1312317 0 44.1312317 3.99010773 40 3.99010773 40 5.60196381 44.1312317 5.60196381 44.1312317 9.47757111 45.4837708 9.47757111 45.4837708 5.60196381 49.4176331 5.60196381 49.4176331 3.99010773 45.4837708 3.99010773 45.4837708 0"></polygon>
                    <polygon id="Path-2-Copy-2" points="44.1312317 40.2 44.1312317 44.1901077 40 44.1901077 40 45.8019638 44.1312317 45.8019638 44.1312317 49.6775711 45.4837708 49.6775711 45.4837708 45.8019638 49.4176331 45.8019638 49.4176331 44.1901077 45.4837708 44.1901077 45.4837708 40.2"></polygon>
                    <polygon id="Path-2-Copy-3" points="4.13123169 40.2 4.13123169 44.1901077 0 44.1901077 0 45.8019638 4.13123169 45.8019638 4.13123169 49.6775711 5.48377075 49.6775711 5.48377075 45.8019638 9.41763306 45.8019638 9.41763306 44.1901077 5.48377075 44.1901077 5.48377075 40.2"></polygon>
                </g>
                <g id="Group-3-Copy-28" transform="translate(0.000000, 0.000000)" fill="#31263E">
                    <polygon id="Path-2" points="4.13123169 0 4.13123169 3.99010773 0 3.99010773 0 5.60196381 4.13123169 5.60196381 4.13123169 9.47757111 5.48377075 9.47757111 5.48377075 5.60196381 9.41763306 5.60196381 9.41763306 3.99010773 5.48377075 3.99010773 5.48377075 0"></polygon>
                    <polygon id="Path-2-Copy" points="44.1312317 0 44.1312317 3.99010773 40 3.99010773 40 5.60196381 44.1312317 5.60196381 44.1312317 9.47757111 45.4837708 9.47757111 45.4837708 5.60196381 49.4176331 5.60196381 49.4176331 3.99010773 45.4837708 3.99010773 45.4837708 0"></polygon>
                    <polygon id="Path-2-Copy-2" points="44.1312317 40.2 44.1312317 44.1901077 40 44.1901077 40 45.8019638 44.1312317 45.8019638 44.1312317 49.6775711 45.4837708 49.6775711 45.4837708 45.8019638 49.4176331 45.8019638 49.4176331 44.1901077 45.4837708 44.1901077 45.4837708 40.2"></polygon>
                    <polygon id="Path-2-Copy-3" points="4.13123169 40.2 4.13123169 44.1901077 0 44.1901077 0 45.8019638 4.13123169 45.8019638 4.13123169 49.6775711 5.48377075 49.6775711 5.48377075 45.8019638 9.41763306 45.8019638 9.41763306 44.1901077 5.48377075 44.1901077 5.48377075 40.2"></polygon>
                </g>
            </g>
        </g>
    </g>
</svg>